<?xml version="1.0" encoding="UTF-8" standalone="no"?>
<svg
   xmlns:osb="http://www.openswatchbook.org/uri/2009/osb"
   xmlns:dc="http://purl.org/dc/elements/1.1/"
   xmlns:cc="http://creativecommons.org/ns#"
   xmlns:rdf="http://www.w3.org/1999/02/22-rdf-syntax-ns#"
   xmlns:svg="http://www.w3.org/2000/svg"
   xmlns="http://www.w3.org/2000/svg"
   xmlns:sodipodi="http://sodipodi.sourceforge.net/DTD/sodipodi-0.dtd"
   xmlns:inkscape="http://www.inkscape.org/namespaces/inkscape"
   inkscape:version="1.0 (4035a4fb49, 2020-05-01)"
   sodipodi:docname="whale.svg"
   id="svg8"
   version="1.1"
   viewBox="0 0 246.45937 155.20674"
   height="155.20674mm"
   width="246.45937mm">
  <defs
     id="defs2">
    <linearGradient
       osb:paint="solid"
       id="linearGradient872">
      <stop
         id="stop870"
         offset="0"
         style="stop-color:#ff00ff;stop-opacity:1;" />
    </linearGradient>
  </defs>
  <sodipodi:namedview
     borderlayer="false"
     showborder="true"
     inkscape:pagecheckerboard="false"
     inkscape:window-maximized="1"
     inkscape:window-y="27"
     inkscape:window-x="0"
     inkscape:window-height="1029"
     inkscape:window-width="1920"
     showgrid="false"
     inkscape:document-rotation="0"
     inkscape:current-layer="layer5"
     inkscape:document-units="mm"
     inkscape:cy="179.73359"
     inkscape:cx="150.41865"
     inkscape:zoom="0.70710678"
     inkscape:pageshadow="2"
     inkscape:pageopacity="0.0"
     borderopacity="1.0"
     bordercolor="#666666"
     pagecolor="#ffffff"
     id="base" />
  <metadata
     id="metadata5">
    <rdf:RDF>
      <cc:Work
         rdf:about="">
        <dc:format>image/svg+xml</dc:format>
        <dc:type
           rdf:resource="http://purl.org/dc/dcmitype/StillImage" />
        <dc:title></dc:title>
      </cc:Work>
    </rdf:RDF>
  </metadata>
  <g
     transform="translate(-25.834954,-18.257496)"
     inkscape:label="Layer 4"
     id="layer5"
     inkscape:groupmode="layer">
    <g
       id="g2939">
      <path
         id="path2866"
         style="display:inline;fill:#f981f2;fill-opacity:1;stroke:none;stroke-width:1.05833px;stroke-linecap:butt;stroke-linejoin:miter;stroke-opacity:1"
         d="m 255.59664,37.319566 -35.15032,14.17588 c -38.8688,2.336 -74.09192,13.390599 -104.36364,28.614279 l -34.114722,2.53008 10.558524,8.4212 C 64.730386,108.78584 44.536286,127.00156 58.28155,145.3812 46.64945,156.3008 36.397046,164.26464 25.834954,173.46424 L 80.10761,150.47648 c 42.84406,-0.1792 87.63031,-12.96284 144.26199,-41.5334 l 47.92472,-2.19104 -28.40756,-12.532595 c 13.80624,-16.48012 28.33436,-32.4434 -1.65572,-42.949319 z m -37.92844,18.20252 c 4.2648,0.0536 8.48372,0.50596 12.60492,1.57716 6.4004,1.66364 14.70316,4.091479 16.95192,10.310479 1.85376,5.1266 -2.1696,11.00904 -5.30612,15.4678 -7.687,10.92748 -19.92432,18.028275 -31.28904,25.052715 -12.89752,7.97184 -27.02176,13.96308 -41.306,19.04792 -14.701,5.2332 -29.84688,9.77964 -45.33678,11.66856 -15.09709,1.841 -31.585078,5.42792 -45.62409,-0.42168 -4.29314,-1.78884 -9.142984,-5.2302 -9.915672,-9.81644 -1.056156,-6.2688 4.40564,-12.17892 8.408784,-17.11732 6.654496,-8.20916 15.956408,-14.006275 24.945258,-19.562635 14.23731,-8.80068 29.68844,-15.67244 45.38222,-21.4912 13.69032,-5.07592 27.81156,-9.369239 42.2424,-11.592039 9.25872,-1.42612 18.85964,-3.24152 28.2422,-3.12332 z" />
      <path
         id="path2875"
         style="fill:#f981f2;fill-opacity:1;stroke:none;stroke-width:1.05833px;stroke-linecap:butt;stroke-linejoin:miter;stroke-opacity:1"
         d="m 213.06692,60.778606 c -5.16212,-0.1368 -10.43664,0.506679 -15.56492,0.886759 -6.94276,0.51456 -13.79528,1.96632 -20.60032,3.43544 -7.39224,1.59592 -14.73972,3.47532 -21.92524,5.83324 -9.67064,3.17344 -19.25556,6.73664 -28.42205,11.16004 -7.56252,3.6494 -14.86366,7.89188 -21.79919,12.6256 -4.21553,2.87728 -8.301294,5.997955 -11.974462,9.541515 -3.20802,3.09488 -6.713824,6.164 -8.702316,10.1534 -1.33772,2.68384 -2.554848,5.85404 -1.930632,8.78708 0.523124,2.45796 2.412988,4.63064 4.475184,6.0668 3.922056,2.7314 9.039776,3.3316 13.774866,3.98116 5.76038,0.7902 11.65913,0.45444 17.44183,-0.1508 13.28783,-1.3916 26.47981,-4.1506 39.28441,-7.96436 11.69636,-3.48368 23.08304,-8.11508 34.01344,-13.54336 9.91936,-4.9262 19.85048,-10.1864 28.44892,-17.166915 5.1434,-4.1756 10.95376,-8.4468 13.5454,-14.5438 1.3934,-3.27808 2.22728,-7.51376 0.57672,-10.67016 -2.09256,-4.00176 -7.19464,-5.84604 -11.52796,-7.11688 -2.96076,-0.86828 -6.0164,-1.232519 -9.11368,-1.314639 z m -6.15156,1.936839 c 2.5024,0.004 4.9912,0.1828 7.44348,0.64076 3.89324,0.72716 8.14584,1.71276 11.02364,4.43384 1.95284,1.84644 3.55704,4.61664 3.42304,7.30088 -0.2796,5.60396 -4.87368,10.28292 -8.62792,14.45284 -5.31632,5.90496 -12.293,10.155 -19.07688,14.291635 -6.83904,4.17032 -14.21924,7.42424 -21.6152,10.50064 -6.81164,2.83336 -13.8168,5.21708 -20.8938,7.30084 -5.47452,1.61192 -11.05612,2.85268 -16.64396,4.0122 -5.74208,1.19148 -11.49963,2.39532 -17.33021,3.02408 -6.02932,0.65032 -12.15974,1.51504 -18.1777,0.76688 -4.28528,-0.53272 -8.710536,-1.48052 -12.414744,-3.70004 -0.891076,-0.53392 -1.617524,-1.34908 -2.193152,-2.2138 -0.91092,-1.36844 -1.812544,-2.91184 -1.893424,-4.55376 -0.14156,-2.87388 1.142092,-5.7284 2.513544,-8.25788 1.71454,-3.16228 4.319596,-5.79864 6.937044,-8.26616 4.315242,-4.068075 9.258802,-7.457435 14.279232,-10.614315 5.40674,-3.39976 11.18816,-6.18172 16.96434,-8.90696 6.24323,-2.9456 12.61027,-5.64792 19.08927,-8.03052 6.34944,-2.33492 12.801,-4.42724 19.34972,-6.12468 8.34152,-2.1622 16.7638,-4.23364 25.3318,-5.1532 4.13408,-0.44376 8.34124,-0.9124 12.51188,-0.90328 z" />
      <path
         style="display:inline;fill:#f981f2;fill-opacity:1;stroke:none;stroke-width:1.05833px;stroke-linecap:butt;stroke-linejoin:miter;stroke-opacity:1"
         d="m 154.26148,75.235965 c -2.32124,-6.08288 -3.4202,-15.948399 -4.71396,-22.788879 -1.7788,-9.40492 -4.27796,-15.77312 -7.62932,-24.78456 -1.15764,-3.1128 -2.38924,-6.56104 -4.99412,-8.62124 -0.64952,-0.51376 -1.58636,-0.95696 -2.37884,-0.7166 -0.89839,0.2724 -1.49295,1.28328 -1.79112,2.17348 -0.75122,2.24276 -0.0963,4.75808 0.30392,7.08924 0.66237,3.85844 2.20148,7.51572 3.43908,11.22984 1.74416,5.23436 3.20832,10.60576 5.61516,15.57044 1.75696,3.62424 4.35672,6.77852 6.38448,10.258479 2.02348,3.47252 7.20584,14.36644 5.76472,10.5898 z"
         id="path2885"
         sodipodi:nodetypes="sssaaaaaaas" />
      <path
         id="path2893"
         style="display:inline;fill:#f981f2;fill-opacity:1;stroke:none;stroke-width:1.05833px;stroke-linecap:butt;stroke-linejoin:miter;stroke-opacity:1"
         d="m 167.73224,87.106725 c -1.64976,-0.0856 -3.29576,0.3212 -4.90928,0.67592 -1.85608,0.40772 -3.69912,0.93016 -5.45288,1.66192 -1.06468,0.44428 -2.08188,1.01104 -3.04684,1.64332 -0.90764,0.59468 -1.81764,1.2188 -2.56108,2.00916 -0.57044,0.60648 -1.19556,1.25232 -1.418,2.05464 -0.1744,0.62852 -0.3076,1.46456 0.124,1.95336 1.35176,1.5304 3.9758,1.18244 6.0172,1.13896 1.64932,-0.036 3.23672,-0.66452 4.8204,-1.12652 1.66136,-0.48464 3.34288,-0.96012 4.89684,-1.72188 1.3178,-0.646 2.56,-1.4652 3.70004,-2.38952 0.85884,-0.69632 1.93744,-1.32092 2.33576,-2.35232 0.2968,-0.7686 0.41332,-1.83344 -0.1096,-2.47012 -0.95756,-1.16564 -2.8902,-0.9988 -4.39664,-1.07692 z m -5.9118,2.59416 c 0.1604,0.001 0.3212,0.012 0.47956,0.036 0.67724,0.0932 1.4346,0.2384 1.91824,0.7214 0.288,0.288 0.46,0.7368 0.432,1.14308 -0.0476,0.68604 -0.48832,1.34056 -0.99012,1.81076 -0.85512,0.80132 -2.0404,1.24412 -3.1874,1.48412 -0.8168,0.1712 -1.74804,0.2972 -2.5032,-0.058 -0.46652,-0.2196 -0.91724,-0.66124 -1.01284,-1.16788 -0.1036,-0.55052 0.2632,-1.11092 0.56428,-1.58336 0.4026,-0.63176 0.98676,-1.14884 1.59992,-1.57924 0.3832,-0.2692 0.81736,-0.48244 1.26916,-0.60564 0.46248,-0.126 0.9486,-0.2052 1.4304,-0.2004 z" />
      <path
         style="display:inline;fill:#f981f2;fill-opacity:1;stroke:none;stroke-width:1.05833px;stroke-linecap:butt;stroke-linejoin:miter;stroke-opacity:1"
         d="m 167.93564,109.92144 c -2.33284,-8.60064 -2.02832,-9.13688 -3.21888,-13.661315 -0.64744,-2.46064 -1.31916,-6.27556 -2.13292,-7.32916 -3.41404,-4.42012 -7.57144,-14.25044 -6.24532,-7.01312 0.58232,3.17808 0.55516,4.52988 1.5082,8.84528 0.54936,2.4876 1.62324,4.8458 2.74952,7.1308 2.07648,4.212715 8.7282,17.147675 7.3394,12.027515 z"
         id="path2889"
         sodipodi:nodetypes="sasssas" />
    </g>
  </g>
</svg>
